<svg id="visual" viewBox="0 0 900 600" width="900" height="600" xmlns="http://www.w3.org/2000/svg" xmlns:xlink="http://www.w3.org/1999/xlink" version="1.1"><path d="M0 74L12.5 70.8C25 67.7 50 61.3 75 54.7C100 48 125 41 150 42C175 43 200 52 225 62.2C250 72.3 275 83.7 300 77.5C325 71.3 350 47.7 375 45.8C400 44 425 64 450 66.8C475 69.7 500 55.3 525 49C550 42.7 575 44.3 600 44.2C625 44 650 42 675 44.5C700 47 725 54 750 53C775 52 800 43 825 48.2C850 53.3 875 72.7 887.5 82.3L900 92L900 0L887.5 0C875 0 850 0 825 0C800 0 775 0 750 0C725 0 700 0 675 0C650 0 625 0 600 0C575 0 550 0 525 0C500 0 475 0 450 0C425 0 400 0 375 0C350 0 325 0 300 0C275 0 250 0 225 0C200 0 175 0 150 0C125 0 100 0 75 0C50 0 25 0 12.5 0L0 0Z" fill="#FFFFFF" stroke-linecap="round" stroke-linejoin="miter"></path></svg>
